<svg width="1200" height="630" viewBox="0 0 1200 630" fill="none" xmlns="http://www.w3.org/2000/svg">
  <!-- Background gradient -->
  <defs>
    <linearGradient id="bgGradient" x1="0%" y1="0%" x2="100%" y2="100%">
      <stop offset="0%" style="stop-color:#1e1b4b;stop-opacity:1" />
      <stop offset="50%" style="stop-color:#7c2d92;stop-opacity:1" />
      <stop offset="100%" style="stop-color:#be185d;stop-opacity:1" />
    </linearGradient>
    <linearGradient id="textGradient" x1="0%" y1="0%" x2="100%" y2="0%">
      <stop offset="0%" style="stop-color:#a855f7;stop-opacity:1" />
      <stop offset="50%" style="stop-color:#ec4899;stop-opacity:1" />
      <stop offset="100%" style="stop-color:#6366f1;stop-opacity:1" />
    </linearGradient>
  </defs>
  
  <!-- Background -->
  <rect width="1200" height="630" fill="url(#bgGradient)"/>
  
  <!-- Brain icon -->
  <g transform="translate(100, 150)">
    <path d="M12 2C13.1 2 14 2.9 14 4C14 5.1 13.1 6 12 6C10.9 6 10 5.1 10 4C10 2.9 10.9 2 12 2ZM21 9V7L15 7.5V9M7.5 8C7.5 8 7.5 8 7.5 8C6.1 8 5 9.1 5 10.5S6.1 13 7.5 13C8.9 13 10 11.9 10 10.5S8.9 8 7.5 8ZM16.5 8C15.1 8 14 9.1 14 10.5S15.1 13 16.5 13C17.9 13 19 11.9 19 10.5S17.9 8 16.5 8Z" 
          fill="#a855f7" stroke="#a855f7" stroke-width="2" transform="scale(4)"/>
  </g>
  
  <!-- Main title -->
  <text x="300" y="250" font-family="system-ui, -apple-system, sans-serif" font-size="72" font-weight="900" fill="white">
    SmartChef
  </text>
  
  <!-- Subtitle -->
  <text x="300" y="320" font-family="system-ui, -apple-system, sans-serif" font-size="48" font-weight="600" fill="url(#textGradient)">
    AI That Gets Why You Eat
  </text>
  
  <!-- Description -->
  <text x="300" y="400" font-family="system-ui, -apple-system, sans-serif" font-size="32" font-weight="400" fill="#e5e7eb">
    The first AI cooking assistant that understands
  </text>
  <text x="300" y="450" font-family="system-ui, -apple-system, sans-serif" font-size="32" font-weight="400" fill="#e5e7eb">
    your mood, budget, and cravings.
  </text>
  
  <!-- Badge -->
  <rect x="300" y="500" width="400" height="60" rx="30" fill="rgba(168, 85, 247, 0.2)" stroke="#a855f7" stroke-width="2"/>
  <text x="500" y="540" font-family="system-ui, -apple-system, sans-serif" font-size="24" font-weight="600" fill="#a855f7" text-anchor="middle">
    Contextual Culinary Intelligence
  </text>
</svg>