<svg width="908" height="640" viewBox="0 0 908 640" fill="none" xmlns="http://www.w3.org/2000/svg">
  <!-- Gradient circle background -->
  <defs>
    <linearGradient id="circleGradient" x1="0%" y1="0%" x2="100%" y2="0%">
      <stop offset="0%" style="stop-color:#FF0080;stop-opacity:1" />
      <stop offset="100%" style="stop-color:#8B5CF6;stop-opacity:1" />
    </linearGradient>
    <linearGradient id="textGradient" x1="0%" y1="0%" x2="100%" y2="0%">
      <stop offset="0%" style="stop-color:#FF0080;stop-opacity:1" />
      <stop offset="100%" style="stop-color:#8B5CF6;stop-opacity:1" />
    </linearGradient>
  </defs>
  
  <!-- Gradient circle background -->
  <circle cx="252" cy="320" r="252" fill="url(#circleGradient)"/>
  
  <!-- Cupcake/muffin icon -->
  <path d="M252 180C285 180 312 207 312 240C312 250 309 259 304 267C325 275 340 295 340 320V340C340 350 335 355 325 355H179C169 355 164 350 164 340V320C164 295 179 275 200 267C195 259 192 250 192 240C192 207 219 180 252 180Z" 
        fill="white" stroke="white" stroke-width="8"/>
  
  <!-- Cupcake wrapper/base -->
  <rect x="164" y="340" width="176" height="30" rx="15" fill="white" stroke="white" stroke-width="4"/>
  
  <!-- Wavy frosting top -->
  <path d="M164 320 Q200 300 252 300 Q304 300 340 320" 
        fill="none" stroke="white" stroke-width="8" stroke-linecap="round"/>
  
  <!-- Savr text with gradient -->
  <text x="420" y="480" font-family="Arial, sans-serif" font-size="280" font-weight="bold" fill="url(#textGradient)">savr</text>
</svg>